<svg xmlns="http://www.w3.org/2000/svg" version="1.1" xmlns:xlink="http://www.w3.org/1999/xlink" xmlns:svgjs="http://svgjs.dev/svgjs" viewBox="0 0 800 800"><defs><linearGradient x1="50%" y1="0%" x2="50%" y2="100%" id="ssscribble-grad"><stop stop-color="hsl(265, 55%, 30%)" stop-opacity="1" offset="0%"></stop><stop stop-color="hsl(265, 55%, 60%)" stop-opacity="1" offset="100%"></stop></linearGradient></defs><g fill="none" stroke-width="2.5" stroke="url(#ssscribble-grad)" stroke-linecap="round"><path d="M1157.51 424.92C1090.34 443.35 958.64 455.89 817.44 462.73 721.43 469.54 706.64 470.69 774.08 466.55 897.13 462.79 1025.56 454.52 1112.16 442.92 1128.77 433.6 1068.93 423.43 954.92 414.84 820.99 412.68 708.77 416.34 647.43 428.95 649.4 452.64 708.31 488.7 801.44 538.46 905 598.92 987.13 670.45 1028.84 749.51 1023.34 827.73 971.44 902.03 886.55 964.66 781.7 1007.53 677.67 1026.57 589.32 1017.56 523.41 982.72 487.63 924.21 479.86 849.7 497.53 774.19 532.14 707.21 574.79 662.4 624.27 651.77 668.99 678.78 704.62 742.91 734.65 834.39 752.27 939.33 758.52 1038.6 757.89 1112.04 748.65 1145.28 733.58 1129.71 714.87 1069.39 693.73 975.48 672.29 868.8 649.92 776.53 629.1 719 610.67 711.84 592.23 758.68 576.63 845.98 563.09 951.47 548.63 1052.29 534.39 1123.07 518.34 1148.88 498.65 1125.8 473.74 1058.65 440.92 962.78 401.23 856.32 350.87 760.48 288.91 691.63 221.33 659.55 145.46 667.22 65.72 709.04 -7.19 777.33 -71.18 856.06 -117.26 930.83 -137.89 992.79 -129.56 1029.66 -90.01 1037.65 -28.04 1017.29 50.66 971.11 131.36 906.23 192.09 827.77 220.99 745.67 204.72 667.31 141.24 595.16 38.59 536.1 -84.15 491.66 -234.86 452.78 -198.16 450.27 -29.14 470.32 71.35 489.2 119.19 506.68 92.17 520.8 -4.81 535.67 -142.04 545.45 -272.21 549.57 -346.76 553.31 -337.4 551.35 -245.04 543.74 -107.48 535.91 22.34 522.79 89.51 504.36 63.26 485.93 -42.87 462.62 -182.9 434.55 -302.41 406.26 -352.19 372.85 -315.4 334.35 -206.88 295.46 -67.36 251.54 53.76 203.23 118.2 155.67 107.43 105.45 31.62 54.63 -83.34 8.38 -195.45 -34.26 -269.73 -69.83 -286.95 -94.82 -241.13 -107.66 -147.37 -105.48 -27.27 -89.45 88.59 -57.83 176.51 -12.06 223.38 39.91 223.44 96.71 184.55 151.02 115.94 191.74 37.63 214.93 -34.03 213.54 -91.63 183.79 -122.23 126.4 -124.36 45.26 -100.24 -48.69 -53.68 -145.29 7.28 -230.03 80.08 -288.29 154.5 -311 224.85 -292.44 293.3 -237.11 352.24 -153.29 401.19 -57.23 444.64 28.23 479.34 86.59 507.3 102.59 531.8 69.68 552.51 -6.5 571.32 -110.95 589.16 -220.09 606.95 -309.27 625.38 -356.14 643.81 -349 662.45 -289.63 680.51 -193.73 697.62 -83.4 712.28 15.94 722.55 83.39 729.35 106.1 728.8 81.68 718.8 18.65 703.3 -70.2 677.11 -163.15 640.6 -241.13 602.2 -291.76 558.93 -303.77 516.39 -276.7 485.67 -215.46 468.49 -130.63 472.75 -35.92 503.28 57.77 561.31 136.81 645.27 193.42 743.31 224.21 846.94 228.18 939.71 209.48 1002.77 171.02 1025.74 122.04 1000.66 70.19 934.51 17.5 839.17 -26.59 738.26 -58.65 663.68 -80 635.7 -86.69 669.34 -80.12 760.04 -62.47 887.16 -34.99 1015.65 -0.88 1104.99 39.63 1127.79 82.53 1073.77 125.3 963.06 170.34 832.35 212.76 730.92 251.28 701.21 290.19 756.37 324.42 879.5 353.51 1023.18 382.58 1131.22 406.47 1157.52 424.91Q1157.51 424.92 1157.51 424.92" opacity="0.26"></path><path d="M1113.01 199.39C937.79 233.18 700.55 257.41 684.58 277.6 895.01 304.64 1073.66 341.01 1028.15 399.18 805.96 478.59 618.24 588.35 607.36 720.8 837.06 889.78 809.28 859.58 563.78 670.58 442.65 603.19 395.09 643.3 397.73 794.58 437.47 979.41 477.64 1094.48 497.91 1058.07 518.22 897.24 511.69 720.87 477.9 667.34 444.11 786.6 384.65 978.02 300.61 1096.08 216.61 1063.21 114.96 901.51 16.65 719.34 -44.53 615.44 -52.63 636.28 16.41 745.1 127.44 882.82 243.7 968.34 279.51 970.64 181.38 894.88 -20.42 769.97 -204.43 637.8 -228.73 513.6 -71.32 424.4 126.09 368.67 146.82 337.56 -51.04 322.62 -274.52 309.51 -271.59 302.27 -41.19 284.31 134.01 250.52 21.3 216.73 -225.69 168.71 -299.43 112.22 -2.23 38.32 -98.26 1.52 -227.34 90.41 -84.49 170.49 125.25 246.9 265.91 278.38 280.7 231.81 191.94 106.23 79.05 -66.66 -15.78 -210.68 -41.72 -261.85 -9.42 -182.74 65.01 -25.35 154.57 117.13 234.45 136.98 317.95 5.92 378.57 -192.34 412.37 -311.64 446.17 -258.16 451.54 -74.95 431.78 98.93 415.63 148.41 387.54 52.6 371.65 -107.44 397.89 -233.97 479.47 -243.8 626.38 -141.24 791.35 25.64 928.65 180.29 958.18 272.56 861.83 288.79 692.14 243.37 584.45 173.46 654.88 93.09 872.79 38.97 1061.45 18.12 1040.22 18.5 828.27 43.6 659.68 80.29 746.4 123.83 1000.24 165.58 1113.02 199.38Q1113.01 199.39 1113.01 199.39" opacity="0.79"></path><path d="M1068.51 230.7C917.18 261.42 688.48 304.59 614.91 361.63 757.57 421.95 961.91 500.4 1035.72 595.43 920.46 688.41 710.73 783.28 560.01 860.04 549.99 897.93 661.94 885.87 800.75 816.12 896.94 717.06 894.42 611.85 812.5 550.38 678.59 575.4 543.22 689.69 435.49 858.41 349.72 1003.15 297.2 1054.41 263.69 975.99 240.27 816.02 217.16 664.47 186.44 622.84 155.72 725.77 118.84 898.87 84.32 1030.61 59.9 1049 56.54 942.4 89.06 775.39 143.56 625.55 228.34 559.01 314.89 585.85 349.47 685.13 307.88 799.63 171.43 882.2 -7.63 916.39 -156 888.33 -177.98 816.77 -59.25 714.3 122.92 607.36 215.67 512.71 119.33 423.63 -102.48 354.71 -256.99 303.02 -195.28 256.12 27.18 218.78 178.51 188.05 -26.64 146.01 -50.28 123.91 209.19 166.26 173.32 207.66 6.46 264.02 -143.66 319.15 -176.19 343.37 -67.07 327.34 106.48 252.9 269.58 130.07 352.21 -20.83 353.34 -152.12 290.29 -210.96 210.11 -172 147.57 -44.68 97.67 99.8 82.83 188.93 93.53 158.72 113.91 15.15 143.41 -164.18 174.13 -267.14 204.86 -225.55 235.33 -67.79 272.88 104.03 320.11 194.34 390.83 160.59 493.96 38.38 609.73 -107.82 740.51 -194.57 850.92 -187.62 897.16 -94.18 858.66 47.44 735.84 186.76 602.54 296.79 529.82 352.98 594.31 362.44 776.4 333.04 970.83 288.77 1029.25 249.02 801.07 195.95 860.18 191.57 1068.52 230.69Q1068.51 230.7 1068.51 230.7" opacity="0.11"></path><path d="M1024.01 478.77C895.69 506.41 683.58 549.21 567.73 603.79 632.97 655.82 812.51 713.47 959.65 767.07 975.54 804.92 848.67 821.87 667.07 806.02 521.35 762.95 479.41 688.74 532 598.36 645.71 527.92 753.5 494.58 815.75 525.37 828.4 622.83 788.02 767.1 719.44 911.8 629.66 998.71 544.17 991.47 475.21 885.73 406.45 735.52 357.64 609.32 329.99 578.34 302.34 665.76 297.16 818.2 313.77 953.77 330.59 1012.46 365.79 964.52 407.65 838.88 428.32 684.96 423.17 562.85 367.9 506.34 263.04 522.64 115.56 591.98 -34.39 679.74 -123.21 768.31 -114.05 824.68 2.87 842.07 155.68 826.86 257.76 782.38 221.6 723.75 54.19 652.61 -141.08 584.42 -216.98 527.04 -111.8 468.7 94.69 424.6 223.01 396.94 50.4 364.35 -97.7 379.77 177.72 411.95 267.09 422.66 210.2 421.62 69.07 394.23 -72.7 334.23 -126.04 238.19 -76.94 113.38 50.48 -10.61 200.21 -112.74 324.5 -157.85 410.42 -130.15 444.95 -32.85 446.15 100.79 421.17 206.18 394.22 238.41 380.17 169.08 363.92 22.85 368.31 -135.19 395.95 -222.64 423.6 -191.7 473.19 -59.92 541.58 100.97 607.77 217.4 685.02 240.39 757.92 173.77 804.65 49.33 815.67 -70.14 772.38 -138.82 690.71 -140.82 580.68 -74.71 489.46 31.95 476.58 158.57 562.68 272.48 733.23 358.16 903.16 416.63 984.88 445.22 915.81 455.27 745.68 449.59 591.35 442.24 584.83 442.35 745.61 439.91 951.47 451.11 1024.02 478.76Q1024.01 478.77 1024.01 478.77" opacity="0.18"></path><path d="M979.51 625.98C873.07 650.55 684.04 674.22 543.4 693.95 535.59 710.03 654.15 715.54 812.91 704.84 924.89 684.34 924.06 643.74 822.21 585.4 664.43 528.68 520.57 473.5 434.9 438.33 419.01 442.95 462.09 492.94 531.35 590.36 614.5 714.66 677.29 842.2 711.02 934.49 727.06 960.25 718.97 907.68 697.58 790 669.72 656.66 640.71 555.48 616.14 533.84 591.56 606.67 572.57 736.97 554.08 867.49 529.13 952.93 492.51 957.93 433.88 887.34 357.56 765.42 254.29 632.6 133.26 525.11 26.13 461.22 -52.23 450.01 -68.55 479.62 -15.09 541.33 99.62 609.71 231.81 667.81 308.06 717.77 286.86 744.07 156.86 748.9 -19.9 741.33 -152.45 720.54 -154.12 693.84 -22.97 663.49 161.07 634.31 267.51 609.74 212.52 585.16 43 566.35 -117.52 550.34 -168.9 530.69 -77.8 506.78 91.86 471.77 250.57 424.35 317.99 357.59 280.94 269.75 166.32 173.78 41.5 70.11 -40.42 -23.81 -61.62 -85.64 -14.93 -103.59 73.12 -65.3 187.4 16.57 295.89 127.35 383.57 231.27 458.72 283.86 510.65 264.9 546.71 169.99 576.51 29.99 601.41 -105.28 625.98 -178.14 650.56 -156.54 673.65 -50.39 690.21 92.42 700.51 219.61 693.29 286.18 660.75 278.45 615.67 204.18 547.65 98.68 471.24 -0.02 421.05 -71.86 409.62 -92.71 463.02 -65.13 577.14 2.24 731.09 92.71 871.32 187.31 933.99 283.52 888.63 364.6 747.96 427.69 596.29 480.98 519.15 520.18 579.97 550.45 749.96 577.07 924.47 601.39 979.52 625.97Q979.51 625.98 979.51 625.98" opacity="0.50"></path><path d="M935.01 483.86C849.03 505.36 687.75 513.86 539.96 509.69 475.1 504.93 517.99 487.15 634.7 458.47 820.42 417.66 766.71 375.95 584.02 423.56 466.82 493.13 387.34 589.49 348.45 701.01 345.18 804.1 366 882.22 394.32 912.74 432.63 887.21 461.33 807.21 474.5 691.86 487.42 580.41 483.51 503.02 462.01 489.34 440.51 548.62 402.43 656.17 348.95 774.26 295.22 872.11 227.4 917.11 151.82 901.53 86.24 832.68 30 729.42 0.13 617.94 5.87 514.43 54.48 438.92 143.49 396.64 241.49 386.4 329.02 401.7 366.87 430.63 328.12 472.6 215.46 511.72 60.66 541.13 -71.8 569.64 -126.94 584.7 -70.37 586.37 69.11 586.49 226.03 575.5 312.01 554 272.5 532.5 135.89 501.5 -18.01 460.83 -115.28 418.61 -105.22 364.43 -1.38 298.66 151.26 231.99 287.39 157.45 362.65 82.33 362.74 20.25 300.46 -25.92 210.35 -43.88 112.64 -29.8 43.6 20.19 13.39 101.31 16.7 190.4 51.59 274.38 102.64 327.47 167.55 327.31 230.31 270.09 282.36 163.96 335.61 37.58 374.16 -74.34 395.66 -133.64 417.18 -119.99 420.63 -38.26 407.94 81.47 396.45 205.13 372.81 297.39 345.16 338.69 331.37 323.95 331.88 265.12 361.71 184.42 425.05 95.29 524.95 24.42 650.84 -16.95 769.14 -30.14 856.94 -11.75 879.26 28.93 826.42 87.5 709.58 152.85 572.7 215.97 484.6 281.92 486.75 338.81 592.28 384.13 754.48 428.85 895.46 462.35 935.02 483.85Q935.01 483.86 935.01 483.86" opacity="0.91"></path><path d="M890.51 234.37C823.34 252.8 692.46 263.25 553.31 267.49 454.56 273.45 429.25 276.74 475.91 281.62 576.43 293.9 689.17 314.76 778.34 349.25 827.98 397.12 823.35 462.08 774.27 542.68 691.21 628.15 595.24 715.88 503.99 793.04 418.02 845.2 351.66 864.43 304.5 842.42 268.9 784.39 245.61 695.92 228.29 594.52 214.61 507.64 199.99 452 181.56 444.84 163.13 491.69 141.75 576.82 120.67 677.01 98.1 807.86 129.85 830.46 205.43 728.33 268.26 636.37 337.77 545.25 396.68 465.86 421.59 399.46 404.37 353.1 335.54 324.76 227.18 311.44 97.91 309.04 -16.12 311.34 -76.29 320.04 -61.46 326.33 30.16 326.27 162.19 327.38 289.34 319.51 356.51 301.08 330.26 282.66 226.65 254.54 92.96 218.66 -23.77 183.97 -76.28 144.14 -52.22 103.49 37.13 69.25 160.73 41.28 281.09 26.19 375.63 26.11 423.48 46 426.34 88.24 389.77 143.47 332.35 212.73 272.2 285.49 209.55 342.69 163.38 377.68 136.49 377.52 118.85 336.34 117.15 257.84 126.2 153.9 138.78 46.6 155.71 -42.27 174.14 -89.14 192.58 -82 211.64 -22.65 233.81 71.32 259.53 179.84 294.75 278.81 344.33 350.37 403.16 385.89 479.68 383.21 570.73 350.24 659.29 292.27 743.19 226.4 803.93 165.08 825.24 108.64 799.26 70.14 723.93 50.68 622.77 44.59 515.7 54.09 439.83 73.76 429.25 100.82 492.23 131.06 616.05 159.86 756.86 190.38 864.22 215.92 890.52 234.36Q890.51 234.37 890.51 234.37" opacity="0.66"></path><path d="M846.01 196.93C694.68 227.65 467.23 276.4 380.14 350.95 481.44 437.97 651.99 559.95 753.93 693.19 758.54 787.19 673.06 811.79 571.16 729.83 455.77 586.01 376.78 441.97 346.06 400.34 315.33 503.27 335.8 668.96 397.95 789.47 446.61 818.54 484.14 742.61 439.27 618.77 297.06 477.19 93.92 366.07 -29.88 294.82 34.68 241.19 249.68 205.53 401.01 174.81 309.19 144.09 90.91 121.2 -26.65 121.59 41.45 139.59 231.37 202.76 398.05 304.08 487.8 387.67 486.36 431.03 455.58 379.46 402.12 236.45 381.94 58.31 412.66 -44.64 443.36 -3.05 522.06 153.42 628.77 319.78 712.8 424.27 762.2 432.27 712.74 378.53 586.34 285.55 429 211.51 383.37 177.73 523.42 156.42 754.15 166.2 846.02 196.92Q846.01 196.93 846.01 196.93" opacity="0.47"></path><path d="M801.51 419.48C695.07 444.06 508.04 497.52 367.73 570.51 335.58 637.52 406.28 706.92 510.33 751.22 619.38 753.48 677.25 699.29 686.66 590.38 673.76 472.97 645 377.47 620.42 355.84 595.85 428.67 577.78 552.93 548.09 669.69 496.09 752.39 399.87 767.95 258.6 729.85 122.34 653.7 25.57 565.58 39.71 490.68 162.01 414.53 339.07 361.42 445.51 336.85 390.52 312.27 228.19 318.55 81.08 352.11 19.33 384.41 75.39 434.18 193.31 478.12 337.23 484.01 450.63 442.39 520.47 341.69 570.83 206.93 600.78 72.71 625.36 -0.14 649.94 21.45 666.82 126.89 659.05 262.32 631.82 389.26 556.79 469.53 445.07 499.48 359.36 487.4 329.34 456.36 409.07 431.93 574.18 401.53 746.48 394.9 801.52 419.47Q801.51 419.48 801.51 419.48" opacity="0.76"></path><path d="M757.01 617.08C689.84 635.52 560.58 658.3 428.05 677.96 325.58 690.1 280.79 685.96 284.38 655.85 326.45 608.68 377.44 534.43 413.58 445.27 451.93 370.37 464.22 318.5 445.78 311.34 427.35 358.19 379.94 439.02 309.64 527.19 241.57 614.59 161.8 674.6 95.58 702.07 67.83 707.61 93.08 690.07 182.03 662.85 301.05 628.62 422.84 598.17 490.01 579.73 463.75 561.3 365.22 556.63 246.19 558.91 136.92 554.19 81.22 542.97 80.34 513.27 120.74 461.64 184.92 382.08 246.14 281.17 313.25 179.49 360.55 91.19 378.99 44.34 397.42 51.5 385.24 110.84 350.07 199.25 320.8 301.92 285.38 395.72 269.14 467.04 294.17 521.31 369.41 554.22 492.18 574.02 624.7 586.31 730.72 598.64 757.02 617.07Q757.01 617.08 757.01 617.08" opacity="0.56"></path><path d="M712.51 536.74C606.07 561.31 423.1 530.77 296.87 450.57 224.09 372.67 202.45 288.47 177.87 266.84 153.29 339.68 130.43 451.9 171.01 532.93 265.03 600.9 428.07 617.07 534.51 592.5 479.51 567.92 331.54 507.25 223.13 407.06 151.39 293.82 150.82 161.68 175.4 88.84 199.98 110.47 245.05 214.59 349 324.7 489.62 437.12 657.51 512.16 712.51 536.74Q712.51 536.74 712.51 536.74" opacity="0.40"></path></g></svg>